<svg width="44" height="44" xmlns="http://www.w3.org/2000/svg"><g fill="none" fill-rule="evenodd"><path d="M0 0h44v44H0z"/><path d="M36.81 18.528C35.024 11.731 28.945 7 21.997 7S8.97 11.731 7.186 18.528A23.045 23.045 0 0 0 0 30.201a51.408 51.408 0 0 1 7.732-2.06C10.032 34.087 15.695 38 22.004 38c6.308 0 11.972-3.913 14.271-9.859A51.409 51.409 0 0 1 44 30.201a23.045 23.045 0 0 0-7.19-11.673zm-19.507-.272c-.665 2.171-2.66 3.473-4.45 2.907-1.789-.565-2.706-2.782-2.04-4.954.664-2.172 2.659-3.473 4.449-2.91 1.79.563 2.696 2.78 2.041 4.957zm13.843 2.907c-1.792.566-3.787-.738-4.45-2.907-.662-2.17.248-4.389 2.042-4.954 1.795-.566 3.787.738 4.45 2.91.662 2.171-.262 4.383-2.054 4.946l.012.005z" fill="#000000" fill-rule="nonzero"/></g></svg>
