<?xml version="1.0" encoding="UTF-8"?>
<svg xmlns="http://www.w3.org/2000/svg" xmlns:xlink="http://www.w3.org/1999/xlink" width="44pt" height="25pt" viewBox="0 0 44 25" version="1.1">
<g id="surface1">
<path style=" stroke:none;fill-rule:nonzero;fill:rgb(10.980392%,11.764706%,12.54902%);fill-opacity:1;" d="M 25.679688 10.261719 C 25.347656 9.992188 24.964844 9.804688 24.546875 9.703125 C 24.308594 9.644531 24.070312 9.621094 23.828125 9.609375 C 23.648438 9.605469 23.464844 9.605469 23.285156 9.605469 C 22.429688 9.605469 21.570312 9.605469 20.714844 9.605469 C 20.535156 9.605469 20.351562 9.605469 20.171875 9.609375 C 19.925781 9.617188 19.6875 9.644531 19.449219 9.703125 C 19.03125 9.804688 18.652344 9.992188 18.316406 10.265625 C 17.648438 10.808594 17.257812 11.628906 17.257812 12.5 C 17.257812 13.371094 17.648438 14.191406 18.320312 14.738281 C 18.652344 15.007812 19.035156 15.195312 19.453125 15.296875 C 19.691406 15.355469 19.929688 15.382812 20.171875 15.390625 C 20.351562 15.398438 20.535156 15.394531 20.714844 15.394531 C 21.570312 15.394531 22.429688 15.394531 23.285156 15.394531 C 23.464844 15.394531 23.648438 15.398438 23.828125 15.390625 C 24.074219 15.382812 24.3125 15.355469 24.550781 15.296875 C 24.96875 15.195312 25.347656 15.007812 25.683594 14.738281 C 26.355469 14.195312 26.746094 13.371094 26.746094 12.5 C 26.742188 11.628906 26.351562 10.808594 25.679688 10.261719 Z M 24.425781 13.277344 C 24.296875 13.367188 24.15625 13.421875 24.007812 13.445312 C 23.855469 13.472656 23.707031 13.46875 23.554688 13.46875 C 22.519531 13.46875 21.480469 13.46875 20.445312 13.46875 C 20.292969 13.46875 20.144531 13.46875 19.992188 13.445312 C 19.839844 13.421875 19.703125 13.367188 19.574219 13.277344 C 19.320312 13.101562 19.167969 12.808594 19.167969 12.496094 C 19.167969 12.183594 19.324219 11.894531 19.574219 11.71875 C 19.703125 11.632812 19.84375 11.574219 19.992188 11.550781 C 20.144531 11.527344 20.292969 11.527344 20.445312 11.527344 C 21.480469 11.527344 22.519531 11.527344 23.554688 11.527344 C 23.707031 11.527344 23.855469 11.527344 24.007812 11.550781 C 24.160156 11.578125 24.296875 11.632812 24.425781 11.71875 C 24.679688 11.894531 24.832031 12.1875 24.832031 12.5 C 24.832031 12.8125 24.679688 13.101562 24.425781 13.277344 Z M 24.425781 13.277344 "/>
</g>
</svg>
