<svg xmlns="http://www.w3.org/2000/svg" xmlns:xlink="http://www.w3.org/1999/xlink" version="1.1" style="enable-background:new 0 0 1920 1080;" xml:space="preserve" width="414" height="250"><rect id="backgroundrect" width="100%" height="100%" x="0" y="0" fill="none" stroke="none"/>
<style type="text/css">
	.st0{fill:#1C1E20;}
</style>

<g class="currentLayer" style=""><title>Layer 1</title><path class="st0" d="M367.5999999999999,28.316021728515636 c-14.6,-11.7 -31.3,-19.8 -49.4,-24.1 c-10.4,-2.5 -20.8,-3.6 -31.4,-4 c-7.9,-0.30000000000000004 -15.8,-0.2 -23.7,-0.2 c-37.4,0 -74.8,0 -112.2,0 c-7.9,0 -15.8,-0.1 -23.7,0.2 c-10.7,0.30000000000000004 -21.1,1.5 -31.5,4 c-18.2,4.4 -34.8,12.5 -49.4,24.2 C17.100000000000023,51.9160217285156 0,87.4160217285156 0,125.01602172851562 c0,37.6 17.1,73.1 46.4,96.7 c14.6,11.7 31.3,19.8 49.4,24.2 c10.4,2.5 20.8,3.6 31.4,4 c7.9,0.30000000000000004 15.8,0.2 23.7,0.2 c37.4,0 74.8,0 112.2,0 c7.9,0 15.8,0.1 23.7,-0.2 c10.7,-0.30000000000000004 21.1,-1.5 31.5,-4 c18.2,-4.4 34.8,-12.5 49.4,-24.2 c29.3,-23.5 46.4,-59.1 46.4,-96.7 C414,87.4160217285156 396.9000000000001,51.9160217285156 367.5999999999999,28.316021728515636 zM312.79999999999995,158.61602172851565 c-5.5,3.8 -11.7,6.3 -18.2,7.3 c-6.6,1.1 -13.1,1 -19.7,1 c-45.3,0 -90.5,0 -135.8,0 c-6.6,0 -13.1,0 -19.7,-1 c-6.6,-1.1 -12.7,-3.5 -18.2,-7.3 c-11.1,-7.6 -17.7,-20.2 -17.7,-33.7 c0,-13.5 6.7,-26 17.7,-33.6 c5.5,-3.8 11.7,-6.3 18.2,-7.3 c6.6,-1.1 13.1,-1 19.7,-1 c45.3,0 90.5,0 135.8,0 c6.6,0 13.1,0 19.7,1 c6.6,1.1 12.7,3.5 18.2,7.3 c11.1,7.6 17.7,20.2 17.7,33.7 C330.5999999999999,138.51602172851562 323.9000000000001,151.01602172851562 312.79999999999995,158.61602172851565 z" id="svg_1"/></g></svg>