<svg width="72" height="44" xmlns="http://www.w3.org/2000/svg">

 <g>
  <title>background</title>
  <rect fill="none" id="canvas_background" height="402" width="582" y="-1" x="-1"/>
 </g>
 <g>
  <title>Layer 1</title>
  <g id="surface1">
   <path id="svg_1" fill-rule="nonzero" fill="#000000" d="m63.929691,4.98438c-2.539063,-2.0586 -5.44141,-3.48438 -8.589851,-4.24219c-1.80859,-0.44141 -3.61718,-0.63281 -5.46093,-0.70313c-1.375,-0.05469 -2.75,-0.03515 -4.121101,-0.03515c-6.503899,0 -13.011719,0 -19.515619,0c-1.371099,0 -2.746099,-0.01954 -4.121099,0.03515c-1.859369,0.05078 -3.667959,0.26172 -5.476561,0.70313c-3.16797,0.77344 -6.054689,2.19922 -8.593749,4.25781c-5.07812,4.13672 -8.05078,10.38672 -8.05078,17.00391c0,6.61718 2.97266,12.863281 8.07031,17.019531c2.53907,2.05859 5.44141,3.484367 8.58985,4.257809c1.80859,0.44141 3.61718,0.632809 5.46093,0.703129c1.375,0.05468 2.75,0.035152 4.121099,0.035152c6.503901,0 13.011721,0 19.515619,0c1.371101,0 2.746101,0.019527 4.121101,-0.035152c1.859371,-0.050789 3.667969,-0.261719 5.476559,-0.703129c3.167973,-0.773441 6.054691,-2.199219 8.59375,-4.257809c5.09375,-4.136723 8.066414,-10.402351 8.066414,-17.019531c-0.015633,-6.61719 -2.988289,-12.86719 -8.085941,-17.01953zm-9.53125,22.933591c-0.953133,0.667969 -2.03516,1.105469 -3.164063,1.28516c-1.148438,0.191399 -2.277348,0.175779 -3.425789,0.175779c-7.878899,0 -15.738281,0 -23.61718,0c-1.148439,0 -2.277349,0 -3.425779,-0.175779c-1.148441,-0.19532 -2.210941,-0.617191 -3.16407,-1.28516c-1.933591,-1.33984 -3.07812,-3.55859 -3.07812,-5.93359c0,-2.375 1.16406,-4.574221 3.07812,-5.91407c0.953129,-0.667971 2.03516,-1.10937 3.16407,-1.285151c1.14843,-0.19141 2.27734,-0.17578 3.425779,-0.17578c7.878899,0 15.738281,0 23.61718,0c1.148441,0 2.277351,0 3.425789,0.17578c1.14843,0.19531 2.21093,0.61718 3.164063,1.285151c1.93359,1.339849 3.078117,3.554689 3.078117,5.933599c0.019531,2.375 -1.144527,4.574221 -3.078117,5.914061zm0,0"/>
  </g>
 </g>
</svg>