<?xml version="1.0" encoding="UTF-8"?>
<svg xmlns="http://www.w3.org/2000/svg" xmlns:xlink="http://www.w3.org/1999/xlink" width="72pt" height="44pt" viewBox="0 0 72 44" version="1.1">
<g id="surface1">
<path style=" stroke:none;fill-rule:nonzero;fill:rgb(0,0,0);fill-opacity:1;" d="M 63.929688 4.984375 C 61.390625 2.925781 58.488281 1.5 55.339844 0.742188 C 53.53125 0.300781 51.722656 0.109375 49.878906 0.0390625 C 48.503906 -0.015625 47.128906 0.00390625 45.757812 0.00390625 C 39.253906 0.00390625 32.746094 0.00390625 26.242188 0.00390625 C 24.871094 0.00390625 23.496094 -0.015625 22.121094 0.0390625 C 20.261719 0.0898438 18.453125 0.300781 16.644531 0.742188 C 13.476562 1.515625 10.589844 2.941406 8.050781 5 C 2.972656 9.136719 0 15.386719 0 22.003906 C 0 28.621094 2.972656 34.867188 8.070312 39.023438 C 10.609375 41.082031 13.511719 42.507812 16.660156 43.28125 C 18.46875 43.722656 20.277344 43.914062 22.121094 43.984375 C 23.496094 44.039062 24.871094 44.019531 26.242188 44.019531 C 32.746094 44.019531 39.253906 44.019531 45.757812 44.019531 C 47.128906 44.019531 48.503906 44.039062 49.878906 43.984375 C 51.738281 43.933594 53.546875 43.722656 55.355469 43.28125 C 58.523438 42.507812 61.410156 41.082031 63.949219 39.023438 C 69.042969 34.886719 72.015625 28.621094 72.015625 22.003906 C 72 15.386719 69.027344 9.136719 63.929688 4.984375 Z M 54.398438 27.917969 C 53.445312 28.585938 52.363281 29.023438 51.234375 29.203125 C 50.085938 29.394531 48.957031 29.378906 47.808594 29.378906 C 39.929688 29.378906 32.070312 29.378906 24.191406 29.378906 C 23.042969 29.378906 21.914062 29.378906 20.765625 29.203125 C 19.617188 29.007812 18.554688 28.585938 17.601562 27.917969 C 15.667969 26.578125 14.523438 24.359375 14.523438 21.984375 C 14.523438 19.609375 15.6875 17.410156 17.601562 16.070312 C 18.554688 15.402344 19.636719 14.960938 20.765625 14.785156 C 21.914062 14.59375 23.042969 14.609375 24.191406 14.609375 C 32.070312 14.609375 39.929688 14.609375 47.808594 14.609375 C 48.957031 14.609375 50.085938 14.609375 51.234375 14.785156 C 52.382812 14.980469 53.445312 15.402344 54.398438 16.070312 C 56.332031 17.410156 57.476562 19.625 57.476562 22.003906 C 57.496094 24.378906 56.332031 26.578125 54.398438 27.917969 Z M 54.398438 27.917969 "/>
</g>
</svg>
