<?xml version="1.0" standalone="no"?>
<!DOCTYPE svg PUBLIC "-//W3C//DTD SVG 20010904//EN"
 "http://www.w3.org/TR/2001/REC-SVG-20010904/DTD/svg10.dtd">
<svg version="1.0" xmlns="http://www.w3.org/2000/svg"
 width="423.000000pt" height="151.000000pt" viewBox="0 0 423.000000 151.000000"
 preserveAspectRatio="xMidYMid meet">
<metadata>
Created by potrace 1.15, written by Peter Selinger 2001-2017
</metadata>
<g transform="translate(0.000000,151.000000) scale(0.100000,-0.100000)"
fill="#000000" stroke="none">
<path d="M1785 1454 c-98 -31 -170 -106 -200 -207 -22 -74 -22 -920 0 -994 44
-150 171 -231 344 -221 134 8 232 72 284 186 22 46 22 56 22 532 0 476 0 486
-22 532 -30 67 -95 132 -156 159 -68 29 -200 36 -272 13z m192 -238 l28 -24 0
-442 0 -442 -28 -24 c-48 -41 -143 -29 -166 23 -15 34 -15 852 0 887 23 51
118 63 166 22z"/>
<path d="M70 750 l0 -700 290 0 290 0 0 110 0 110 -180 0 -180 0 0 190 0 190
125 0 125 0 0 115 0 115 -125 0 -125 0 0 175 0 175 180 0 180 0 0 110 0 110
-290 0 -290 0 0 -700z"/>
<path d="M740 1442 c0 -5 56 -161 125 -346 69 -186 125 -342 125 -348 0 -6
-56 -161 -125 -346 -69 -184 -125 -339 -125 -344 0 -5 54 -7 121 -6 l122 3 71
192 c39 105 73 190 76 187 3 -3 37 -89 75 -192 l71 -187 122 -3 c67 -1 122 0
122 3 0 3 -58 160 -129 349 l-129 344 123 329 c67 180 126 338 129 351 7 22 7
22 -116 22 l-123 0 -69 -188 c-38 -103 -72 -190 -75 -194 -4 -4 -38 79 -77
185 l-71 192 -122 3 c-67 1 -121 -1 -121 -6z"/>
<path d="M2380 750 l0 -700 110 0 110 0 0 128 c0 125 0 129 37 215 29 68 39
84 45 70 5 -10 41 -106 82 -213 l73 -195 127 -3 c70 -1 125 1 123 5 -9 16
-277 720 -277 729 0 5 62 155 138 334 l139 325 -116 3 c-63 1 -120 1 -126 -1
-5 -3 -62 -124 -125 -271 l-115 -267 -3 271 -2 270 -110 0 -110 0 0 -700z"/>
<path d="M3190 750 l0 -700 110 0 110 0 0 700 0 700 -110 0 -110 0 0 -700z"/>
<path d="M3510 1340 l0 -110 110 0 110 0 0 -590 0 -590 115 0 115 0 0 590 0
590 110 0 110 0 0 110 0 110 -335 0 -335 0 0 -110z"/>
</g>
</svg>
