<?xml version="1.0" standalone="no"?>
<!DOCTYPE svg PUBLIC "-//W3C//DTD SVG 20010904//EN"
 "http://www.w3.org/TR/2001/REC-SVG-20010904/DTD/svg10.dtd">
<svg version="1.0" xmlns="http://www.w3.org/2000/svg"
 width="395.000000pt" height="68.000000pt" viewBox="0 0 395.000000 68.000000"
 preserveAspectRatio="xMidYMid meet">
<metadata>
Created by potrace 1.15, written by Peter Selinger 2001-2017
</metadata>
<g transform="translate(0.000000,68.000000) scale(0.100000,-0.100000)"
fill="#000000" stroke="none">
<path d="M1563 651 c-122 -58 -183 -148 -191 -282 -14 -233 147 -378 407 -367
83 3 105 8 163 36 69 34 133 94 161 155 9 17 21 60 28 94 25 123 -31 261 -135
333 -74 50 -115 60 -250 60 -113 0 -125 -2 -183 -29z m282 -69 c43 -21 74 -51
98 -97 32 -59 31 -222 0 -282 -84 -158 -304 -157 -385 1 -30 58 -36 176 -13
250 22 70 84 132 142 141 21 4 43 8 48 9 18 6 80 -7 110 -22z"/>
<path d="M13 654 c-10 -26 11 -49 48 -54 l34 -5 3 -252 2 -253 -28 0 c-43 0
-66 -21 -58 -53 l6 -27 440 0 440 0 0 35 c0 31 -4 36 -30 42 -17 3 -30 7 -30
9 0 7 135 164 140 163 5 0 112 -146 118 -161 2 -4 -5 -8 -15 -8 -35 0 -57 -24
-49 -53 l6 -27 155 0 155 0 6 25 c8 33 -9 53 -49 57 -28 3 -44 20 -133 138
l-102 135 22 25 c11 14 54 65 95 113 47 56 83 89 100 93 48 10 51 13 51 44 l0
30 -136 0 -135 0 3 -32 c2 -28 8 -34 31 -36 15 -2 27 -6 27 -8 0 -8 -113 -144
-120 -144 -3 0 -31 33 -62 74 l-57 75 32 3 c28 3 32 7 32 33 l0 30 -151 3
c-141 2 -152 1 -156 -16 -8 -29 8 -49 45 -56 29 -5 48 -24 123 -121 49 -64 90
-121 92 -128 1 -8 -44 -67 -100 -133 -88 -100 -109 -119 -136 -122 -31 -3 -32
-2 -32 35 0 56 -17 75 -65 71 -38 -3 -41 -5 -49 -43 -4 -22 -10 -46 -12 -53
-2 -9 -38 -12 -134 -12 l-130 0 0 115 0 116 73 -3 72 -3 3 -32 c4 -40 22 -55
64 -51 l33 3 3 118 3 118 -48 -3 c-46 -3 -48 -4 -53 -38 l-5 -35 -72 -3 -73
-3 0 101 0 100 108 0 108 0 14 -42 c15 -42 16 -43 60 -43 l45 0 3 83 3 82
-286 0 c-255 0 -286 -2 -292 -16z"/>
<path d="M2194 656 c-13 -33 1 -51 41 -56 l40 -5 3 -252 2 -253 -28 0 c-40 0
-65 -21 -60 -51 l3 -24 155 0 155 0 3 29 c4 34 -10 46 -55 46 l-33 0 0 100 0
100 25 0 c16 0 37 -13 59 -37 82 -92 168 -200 177 -221 l9 -22 262 2 263 3 3
29 c4 34 -10 46 -56 46 l-32 0 2 253 3 252 40 5 c37 5 40 8 43 38 l3 32 -161
0 -161 0 3 -32 c3 -30 6 -33 41 -36 l37 -3 0 -253 0 -253 -42 -6 c-24 -3 -62
-2 -86 2 -41 6 -49 13 -158 146 -63 77 -114 143 -114 146 0 4 50 54 110 112
95 91 115 106 148 109 34 3 37 6 37 33 l0 30 -135 0 -135 0 0 -30 c0 -26 4
-30 29 -33 28 -4 25 -7 -85 -118 -62 -63 -117 -114 -122 -114 -4 0 -6 51 -5
113 l3 112 40 5 c37 5 40 8 43 38 l3 32 -156 0 c-126 0 -157 -3 -161 -14z"/>
<path d="M3244 657 c-3 -8 -4 -45 -2 -83 l3 -69 50 0 50 0 9 43 9 42 73 0 74
0 0 -250 0 -250 -33 0 c-48 0 -72 -20 -63 -54 l7 -26 162 2 162 3 3 29 c4 34
-10 46 -55 46 l-33 0 0 250 0 250 69 0 70 0 8 -42 9 -43 49 0 50 0 0 80 0 80
-333 3 c-273 2 -333 0 -338 -11z"/>
</g>
</svg>
